
<svg xmlns="http://www.w3.org/2000/svg" viewBox="54.031 59.164 400.195 381.777" width="400.195px" height="381.777px">
  <path d="M 54.031 313.933 L 193.365 256.479 L 273.568 299.57 L 289.767 440.941 L 190.938 440.183 L 205.519 341.905 L 188.506 332.834 L 105.069 393.315 L 54.031 313.933 Z" fill="#B4C0D3" style="" transform="matrix(0.9999999999999999, 0, 0, 0.9999999999999999, -2.842170943040401e-14, -1.4210854715202004e-14)"/>
  <path d="M 282.481 293.518 L 405.62 377.433 L 454.226 296.538 L 355.39 259.496 L 355.39 241.352 L 454.226 203.551 L 405.62 123.422 L 282.481 207.33 L 282.481 293.518 Z" fill="#00D3AB" style="" transform="matrix(0.9999999999999999, 0, 0, 0.9999999999999999, -2.842170943040401e-14, -1.4210854715202004e-14)"/>
  <path d="M 273.568 200.534 L 289.767 59.164 L 190.938 60.674 L 205.519 158.952 L 188.506 168.024 L 104.256 107.547 L 54.031 186.167 L 193.365 243.621 L 273.568 200.534 Z" fill="#4876EF" style="" transform="matrix(0.9999999999999999, 0, 0, 0.9999999999999999, -2.842170943040401e-14, -1.4210854715202004e-14)"/>
</svg>