<svg class="svg-icon" style="width: 1em; height: 1em;vertical-align: middle;fill: black;overflow: hidden;" viewBox="0 0 1024 1024" version="1.1" xmlns="http://www.w3.org/2000/svg"><path d="M880 224H144c-26.5 0-48-21.5-48-48s21.5-48 48-48h736c26.5 0 48 21.5 48 48s-21.5 48-48 48zM144 576h416c26.5 0 48 21.5 48 48s-21.5 48-48 48H144c-26.5 0-48-21.5-48-48s21.5-48 48-48zM144 352h416c26.5 0 48 21.5 48 48s-21.5 48-48 48H144c-26.5 0-48-21.5-48-48s21.5-48 48-48zM880 896H144c-26.5 0-48-21.5-48-48s21.5-48 48-48h736c26.5 0 48 21.5 48 48s-21.5 48-48 48zM917.4 489.4L790.6 362.6c-20.2-20.2-54.6-5.9-54.6 22.6v253.5c0 28.5 34.5 42.8 54.6 22.6l126.7-126.7c12.6-12.5 12.6-32.7 0.1-45.2z" /></svg>